<?xml version="1.0" encoding="utf-8"?>
<svg id="master-artboard" viewBox="0 0 1400 980" version="1.1" xmlns="http://www.w3.org/2000/svg" x="0px" y="0px" width="1400px" height="980px" style="enable-background:new 0 0 1400 980;"><rect id="ee-background" x="0" y="0" width="1400" height="980" style="fill: white; fill-opacity: 0; pointer-events: none;"/>

<path d="M 0 0 L 1400 0 L 1400 980 L 0 980 L 0 0 Z" class="st0" style="fill-rule: evenodd; clip-rule: evenodd; fill: rgb(227, 104, 108); fill-opacity: 0;" transform="matrix(1, 0, 0, 1, 0, 0)"/><path class="st1" d="M526.8,741.6c0,89.1,61.2,164.6,143.6,186.6V980h267.4v-45.2v-70.9V548.5H526.8V741.6z" style="fill-rule: evenodd; clip-rule: evenodd; fill: rgb(238, 218, 191);" transform="matrix(1, 0, 0, 1, 0, 0)"/><path class="st2" d="M828,172.7H586.7c-23.2,0-42.1,18.9-42.1,42.1v550.5c0,23.1,18.9,42.1,42.1,42.1H828&#10;&#9;&#9;c23.2,0,42.1-18.9,42.1-42.1V214.8C870.1,191.6,851.1,172.7,828,172.7z" style="fill-rule: evenodd; clip-rule: evenodd; fill: rgb(56, 78, 91);" transform="matrix(1, 0, 0, 1, 0, 0)"/><path class="st3" d="M742.4,241.6v196.1c0,7.3,6,13.3,13.3,13.3H766l17.6,17.6c1.7,1.7,4.4,1.7,6.1,0l17.6-17.6h62.7V228.3H755.7&#10;&#9;&#9;C748.3,228.3,742.4,234.3,742.4,241.6z" style="fill-rule: evenodd; clip-rule: evenodd; fill: rgb(49, 60, 66);" transform="matrix(1, 0, 0, 1, 0, 0)"/><path class="st4" d="M828,172.7H586.7c-23.2,0-42.1,18.9-42.1,42.1v550.5c0,5,0.9,9.9,2.6,14.4l312.5-592.4&#10;&#9;&#9;C852,178.3,840.6,172.7,828,172.7z" style="fill-rule: evenodd; clip-rule: evenodd; fill: rgb(72, 96, 110);" transform="matrix(1, 0, 0, 1, 0, 0)"/><path class="st5" d="M708.5,293.5H544.6V393h109.2l17.6,17.6c1.7,1.7,4.4,1.7,6.1,0l17.6-17.6h13.3c3.9,0,7-3.1,7-7v-85.5&#10;&#9;&#9;C715.5,296.7,712.3,293.5,708.5,293.5z" style="fill-rule: evenodd; clip-rule: evenodd; fill: rgb(39, 53, 61);" transform="matrix(1, 0, 0, 1, 0, 0)"/><path d="M 575.799988 244.699997 H 838.899994 V 689.900009 H 575.799988 V 244.699997 Z" class="st4" style="fill-rule: evenodd; clip-rule: evenodd; fill: rgb(72, 96, 110);" transform="matrix(1, 0, 0, 1, 0, 0)"/><path class="st3" d="M742.4,437.7c0,7.3,6,13.3,13.3,13.3H766l17.6,17.6c1.7,1.7,4.4,1.7,6.1,0l17.6-17.6h31.5V244.7h-96.5V437.7z" style="fill-rule: evenodd; clip-rule: evenodd; fill: rgb(49, 60, 66);" transform="matrix(1, 0, 0, 1, 0, 0)"/><path class="st3" d="M708.5,566.1H575.8v99.5h78l17.6,17.6c1.7,1.7,4.4,1.7,6.1,0l17.6-17.6h13.3c3.9,0,7-3.2,7-7v-85.5&#10;&#9;&#9;C715.5,569.2,712.3,566.1,708.5,566.1z" style="fill-rule: evenodd; clip-rule: evenodd; fill: rgb(49, 60, 66);" transform="matrix(1, 0, 0, 1, 0, 0)"/><path class="st3" d="M708.5,293.5H575.8V393h78l17.6,17.6c1.7,1.7,4.4,1.7,6.1,0l17.6-17.6h13.3c3.9,0,7-3.1,7-7v-85.5&#10;&#9;&#9;C715.5,296.7,712.3,293.5,708.5,293.5z" style="fill-rule: evenodd; clip-rule: evenodd; fill: rgb(49, 60, 66);" transform="matrix(1, 0, 0, 1, 0, 0)"/><path class="st3" d="M708.5,429.8H575.8v99.5h78l17.6,17.6c1.7,1.7,4.4,1.7,6.1,0l17.6-17.6h13.3c3.9,0,7-3.2,7-7v-85.5&#10;&#9;&#9;C715.5,432.9,712.3,429.8,708.5,429.8z" style="fill-rule: evenodd; clip-rule: evenodd; fill: rgb(49, 60, 66);" transform="matrix(1, 0, 0, 1, 0, 0)"/><path d="M 738.000025 745.400024 A 30.6 30.6 0 0 1 707.400024 776.000025 A 30.6 30.6 0 0 1 676.800024 745.400024 A 30.6 30.6 0 0 1 707.400024 714.800024 A 30.6 30.6 0 0 1 738.000025 745.400024 Z" class="st5" style="fill-rule: evenodd; clip-rule: evenodd; fill: rgb(39, 53, 61);" transform="matrix(1, 0, 0, 1, 0, 0)"/><path d="M 635.200025 220.100006 A 5.3 5.3 0 0 1 629.900024 225.400006 A 5.3 5.3 0 0 1 624.600024 220.100006 A 5.3 5.3 0 0 1 629.900024 214.800006 A 5.3 5.3 0 0 1 635.200025 220.100006 Z" class="st5" style="fill-rule: evenodd; clip-rule: evenodd; fill: rgb(39, 53, 61);" transform="matrix(1, 0, 0, 1, 0, 0)"/><path class="st5" d="M755.3,214.6h-95.9c-2.9,0-5.3,2.4-5.3,5.3c0,2.9,2.4,5.3,5.3,5.3h95.9c2.9,0,5.3-2.4,5.3-5.3&#10;&#9;&#9;C760.6,217,758.2,214.6,755.3,214.6z" style="fill-rule: evenodd; clip-rule: evenodd; fill: rgb(39, 53, 61);" transform="matrix(1, 0, 0, 1, 0, 0)"/><path class="st6" d="M573.7,242.6V692H841V242.6H575.8H573.7z M577.9,246.8h258.9v441.1H577.9V246.8z" style="fill-rule: evenodd; clip-rule: evenodd; fill: rgb(44, 61, 71);" transform="matrix(1, 0, 0, 1, 0, 0)"/><path class="st7" d="M951.7,210.4H755.7c-7.3,0-13.3,6-13.3,13.3v196.1c0,7.3,6,13.3,13.3,13.3H766l17.6,17.6&#10;&#9;&#9;c1.7,1.7,4.4,1.7,6.1,0l17.6-17.6h144.3c7.3,0,13.3-6,13.3-13.3V223.6C965,216.3,959.1,210.4,951.7,210.4z" style="fill-rule: evenodd; clip-rule: evenodd; fill: rgb(82, 121, 111);" transform="matrix(1, 0, 0, 1, 0, 0)"/><path class="st8" d="M951.7,210.4H755.7c-7.3,0-13.3,6-13.3,13.3V338H965V223.6C965,216.3,959.1,210.4,951.7,210.4z" style="fill-rule: evenodd; clip-rule: evenodd; fill: rgb(202, 210, 197);" transform="matrix(1, 0, 0, 1, 0, 0)"/><path d="M 779.599976 369.700012 H 927.699982 V 374.800012 H 779.599976 V 369.700012 Z" class="st9" style="fill-rule: evenodd; clip-rule: evenodd; fill: rgb(255, 255, 255);" transform="matrix(1, 0, 0, 1, 0, 0)"/><path d="M 779.599976 379.5 H 927.699982 V 384.6 H 779.599976 V 379.5 Z" class="st9" style="fill-rule: evenodd; clip-rule: evenodd; fill: rgb(255, 255, 255);" transform="matrix(1, 0, 0, 1, 0, 0)"/><path d="M 779.599976 389.399994 H 927.699982 V 394.499994 H 779.599976 V 389.399994 Z" class="st9" style="fill-rule: evenodd; clip-rule: evenodd; fill: rgb(255, 255, 255);" transform="matrix(1, 0, 0, 1, 0, 0)"/><path d="M 779.599976 399.200012 H 877.199974 V 404.300012 H 779.599976 V 399.200012 Z" class="st9" style="fill-rule: evenodd; clip-rule: evenodd; fill: rgb(255, 255, 255);" transform="matrix(1, 0, 0, 1, 0, 0)"/><path class="st10" d="M925.5,277.2L860.2,245l-8-3.9c-8.6-4.3-12.8-5.1-18,2.2L822.1,262c-10.7,16.4-20,13.5-27.4,6.7l-9.8-9&#10;&#9;&#9;&#9;c-3.6-3.3-9.9-2.9-11.2,4l-2.7,13.6c-1,4.9-1.1,10.2,0,15.1l2.2,9.6c1,4.6,3.9,8.6,8.6,8.6h142.8c7,0,12.7-5.7,12.7-12.7V289&#10;&#9;&#9;&#9;C937.2,282.5,931.3,280.1,925.5,277.2z" style="fill-rule: evenodd; clip-rule: evenodd; fill: rgb(53, 143, 166);" transform="matrix(1, 0, 0, 1, 0, 0)"/><path class="st9" d="M773.1,302c1,4.6,3.9,8.6,8.6,8.6h142.8c7,0,12.7-5.7,12.7-12.7v-5.5H771L773.1,302z" style="fill-rule: evenodd; clip-rule: evenodd; fill: rgb(255, 255, 255);" transform="matrix(1, 0, 0, 1, 0, 0)"/><path d="M 779.599976 353.5 H 841.099976 V 362.7 H 779.599976 V 353.5 Z" class="st9" style="fill-rule: evenodd; clip-rule: evenodd; fill: rgb(255, 255, 255);" transform="matrix(1, 0, 0, 1, 0, 0)"/><path class="st1" d="M901.1,496.2l-80.4-21.6c-26.3-7-53.6,8.7-60.6,35c-7,26.3,8.7,53.5,35,60.6l80.4,21.6&#10;&#9;&#9;c26.3,7,53.5-8.7,60.6-35C943.1,530.5,927.4,503.2,901.1,496.2z" style="fill-rule: evenodd; clip-rule: evenodd; fill: rgb(238, 218, 191);" transform="matrix(1, 0, 0, 1, 0, 0)"/><path class="st7" d="M708.5,268.9H433.9c-3.9,0-7,3.2-7,7v85.5c0,3.9,3.2,7,7,7h219.9l17.6,17.6c1.7,1.7,4.4,1.7,6.1,0l17.6-17.6&#10;&#9;&#9;&#9;h13.3c3.9,0,7-3.2,7-7v-85.5C715.5,272.1,712.3,268.9,708.5,268.9z" style="fill-rule: evenodd; clip-rule: evenodd; fill: rgb(82, 121, 111);" transform="matrix(1, 0, 0, 1, 0, 0)"/><path d="M 511.700012 306.299988 H 659.800018 V 311.399988 H 511.700012 V 306.299988 Z" class="st9" style="fill-rule: evenodd; clip-rule: evenodd; fill: rgb(255, 255, 255);" transform="matrix(1, 0, 0, 1, 0, 0)"/><path d="M 511.700012 316.100006 H 659.800018 V 321.200006 H 511.700012 V 316.100006 Z" class="st9" style="fill-rule: evenodd; clip-rule: evenodd; fill: rgb(255, 255, 255);" transform="matrix(1, 0, 0, 1, 0, 0)"/><path d="M 511.700012 326 H 659.800018 V 331.1 H 511.700012 V 326 Z" class="st9" style="fill-rule: evenodd; clip-rule: evenodd; fill: rgb(255, 255, 255);" transform="matrix(1, 0, 0, 1, 0, 0)"/><path d="M 511.700012 335.799988 H 609.300011 V 340.899988 H 511.700012 V 335.799988 Z" class="st9" style="fill-rule: evenodd; clip-rule: evenodd; fill: rgb(255, 255, 255);" transform="matrix(1, 0, 0, 1, 0, 0)"/><path d="M 525.2000122070312 291.79998779296875 L 523.2999877929688 286.20001220703125 L 521.5 291.79998779296875 L 515.5999755859375 291.79998779296875 L 520.4000244140625 295.29998779296875 L 518.5999755859375 300.8999938964844 L 523.2999877929688 297.3999938964844 L 528.0999755859375 300.8999938964844 L 526.2999877929688 295.29998779296875 L 531.0999755859375 291.79998779296875 Z" class="st11" style="fill-rule: evenodd; clip-rule: evenodd; fill: rgb(255, 204, 0);" transform="matrix(1, 0, 0, 1, 0, 0)"/><path d="M 543.4000244140625 291.79998779296875 L 541.5999755859375 286.20001220703125 L 539.7000122070312 291.79998779296875 L 533.9000244140625 291.79998779296875 L 538.5999755859375 295.29998779296875 L 536.7999877929688 300.8999938964844 L 541.5999755859375 297.3999938964844 L 546.2999877929688 300.8999938964844 L 544.5 295.29998779296875 L 549.2999877929688 291.79998779296875 Z" class="st11" style="fill-rule: evenodd; clip-rule: evenodd; fill: rgb(255, 204, 0);" transform="matrix(1, 0, 0, 1, 0, 0)"/><path d="M 561.5999755859375 291.79998779296875 L 559.7999877929688 286.20001220703125 L 558 291.79998779296875 L 552.0999755859375 291.79998779296875 L 556.7999877929688 295.29998779296875 L 555 300.8999938964844 L 559.7999877929688 297.3999938964844 L 564.5 300.8999938964844 L 562.7000122070312 295.29998779296875 L 567.5 291.79998779296875 Z" class="st11" style="fill-rule: evenodd; clip-rule: evenodd; fill: rgb(255, 204, 0);" transform="matrix(1, 0, 0, 1, 0, 0)"/><path d="M 579.7999877929688 291.79998779296875 L 578 286.20001220703125 L 576.2000122070312 291.79998779296875 L 570.2999877929688 291.79998779296875 L 575.0999755859375 295.29998779296875 L 573.2000122070312 300.8999938964844 L 578 297.3999938964844 L 582.7000122070312 300.8999938964844 L 580.9000244140625 295.29998779296875 L 585.7000122070312 291.79998779296875 Z" class="st10" style="fill-rule: evenodd; clip-rule: evenodd; fill: rgb(53, 143, 166);" transform="matrix(1, 0, 0, 1, 0, 0)"/><path d="M 598 291.79998779296875 L 596.2000122070312 286.20001220703125 L 594.4000244140625 291.79998779296875 L 588.5 291.79998779296875 L 593.2999877929688 295.29998779296875 L 591.4000244140625 300.8999938964844 L 596.2000122070312 297.3999938964844 L 601 300.8999938964844 L 599.0999755859375 295.29998779296875 L 603.9000244140625 291.79998779296875 Z" class="st10" style="fill-rule: evenodd; clip-rule: evenodd; fill: rgb(53, 143, 166);" transform="matrix(1, 0, 0, 1, 0, 0)"/><path d="M 498.100012 318.700012 A 27.9 27.9 0 0 1 470.200012 346.600012 A 27.9 27.9 0 0 1 442.300013 318.700012 A 27.9 27.9 0 0 1 470.200012 290.800013 A 27.9 27.9 0 0 1 498.100012 318.700012 Z" class="st12" style="fill-rule: evenodd; clip-rule: evenodd; fill: rgb(48, 166, 87);" transform="matrix(1, 0, 0, 1, 0, 0)"/><path class="st9" d="M476.5,314.5c1.1-1.4,1.8-3.2,1.8-5.1c0-4.5-3.6-8.1-8.1-8.1c-4.5,0-8.1,3.6-8.1,8.1c0,1.9,0.7,3.7,1.8,5.1&#10;&#9;&#9;&#9;c-3.2,1.9-5.3,5.4-5.3,9.3v9.2c0,1.6,1.3,2.9,2.9,2.9h17.2c1.6,0,2.9-1.3,2.9-2.9v-9.2C481.8,319.9,479.6,316.5,476.5,314.5z" style="fill-rule: evenodd; clip-rule: evenodd; fill: rgb(255, 255, 255);" transform="matrix(1, 0, 0, 1, 0, 0)"/><path class="st1" d="M631.3,463.5H522.3c-18.5,0-33.7,15.2-33.7,33.7v0c0,18.5,15.1,33.7,33.7,33.7h109.1&#10;&#9;&#9;c18.5,0,33.7-15.2,33.7-33.7v0C665,478.7,649.8,463.5,631.3,463.5z" style="fill-rule: evenodd; clip-rule: evenodd; fill: rgb(238, 218, 191);" transform="matrix(1, 0, 0, 1, 0, 0)"/><path class="st1" d="M631.3,685.5H522.3c-18.5,0-33.7,15.1-33.7,33.7c0,18.5,15.1,33.7,33.7,33.7h109.1c18.5,0,33.7-15.1,33.7-33.7&#10;&#9;&#9;C665,700.7,649.8,685.5,631.3,685.5z" style="fill-rule: evenodd; clip-rule: evenodd; fill: rgb(238, 218, 191);" transform="matrix(1, 0, 0, 1, 0, 0)"/><path class="st1" d="M631.3,611.5H522.3c-18.5,0-33.7,15.1-33.7,33.7v0c0,18.5,15.1,33.7,33.7,33.7h109.1&#10;&#9;&#9;c18.5,0,33.7-15.2,33.7-33.7v0C665,626.7,649.8,611.5,631.3,611.5z" style="fill-rule: evenodd; clip-rule: evenodd; fill: rgb(238, 218, 191);" transform="matrix(1, 0, 0, 1, 0, 0)"/><path class="st1" d="M631.3,537.5H522.3c-18.5,0-33.7,15.1-33.7,33.7c0,18.5,15.1,33.7,33.7,33.7h109.1c18.5,0,33.7-15.2,33.7-33.7&#10;&#9;&#9;C665,552.7,649.8,537.5,631.3,537.5z" style="fill-rule: evenodd; clip-rule: evenodd; fill: rgb(238, 218, 191);" transform="matrix(1, 0, 0, 1, 0, 0)"/><path class="st7" d="M708.5,405.2H433.9c-3.9,0-7,3.2-7,7v85.5c0,3.9,3.2,7,7,7h219.9l17.6,17.6c1.7,1.7,4.4,1.7,6.1,0l17.6-17.6&#10;&#9;&#9;&#9;h13.3c3.9,0,7-3.2,7-7v-85.5C715.5,408.4,712.3,405.2,708.5,405.2z" style="fill-rule: evenodd; clip-rule: evenodd; fill: rgb(82, 121, 111);" transform="matrix(1, 0, 0, 1, 0, 0)"/><path d="M 511.700012 442.600006 H 659.800018 V 447.700006 H 511.700012 V 442.600006 Z" class="st9" style="fill-rule: evenodd; clip-rule: evenodd; fill: rgb(255, 255, 255);" transform="matrix(1, 0, 0, 1, 0, 0)"/><path d="M 511.700012 452.399994 H 659.800018 V 457.499994 H 511.700012 V 452.399994 Z" class="st9" style="fill-rule: evenodd; clip-rule: evenodd; fill: rgb(255, 255, 255);" transform="matrix(1, 0, 0, 1, 0, 0)"/><path d="M 511.700012 462.299988 H 659.800018 V 467.399988 H 511.700012 V 462.299988 Z" class="st9" style="fill-rule: evenodd; clip-rule: evenodd; fill: rgb(255, 255, 255);" transform="matrix(1, 0, 0, 1, 0, 0)"/><path d="M 511.700012 472.100006 H 609.300011 V 477.200006 H 511.700012 V 472.100006 Z" class="st9" style="fill-rule: evenodd; clip-rule: evenodd; fill: rgb(255, 255, 255);" transform="matrix(1, 0, 0, 1, 0, 0)"/><path d="M 525.2000122070312 428.1000061035156 L 523.2999877929688 422.5 L 521.5 428.1000061035156 L 515.5999755859375 428.1000061035156 L 520.4000244140625 431.6000061035156 L 518.5999755859375 437.20001220703125 L 523.2999877929688 433.70001220703125 L 528.0999755859375 437.20001220703125 L 526.2999877929688 431.6000061035156 L 531.0999755859375 428.1000061035156 Z" class="st11" style="fill-rule: evenodd; clip-rule: evenodd; fill: rgb(255, 204, 0);" transform="matrix(1, 0, 0, 1, 0, 0)"/><path d="M 543.4000244140625 428.1000061035156 L 541.5999755859375 422.5 L 539.7000122070312 428.1000061035156 L 533.9000244140625 428.1000061035156 L 538.5999755859375 431.6000061035156 L 536.7999877929688 437.20001220703125 L 541.5999755859375 433.70001220703125 L 546.2999877929688 437.20001220703125 L 544.5 431.6000061035156 L 549.2999877929688 428.1000061035156 Z" class="st11" style="fill-rule: evenodd; clip-rule: evenodd; fill: rgb(255, 204, 0);" transform="matrix(1, 0, 0, 1, 0, 0)"/><path d="M 561.5999755859375 428.1000061035156 L 559.7999877929688 422.5 L 558 428.1000061035156 L 552.0999755859375 428.1000061035156 L 556.7999877929688 431.6000061035156 L 555 437.20001220703125 L 559.7999877929688 433.70001220703125 L 564.5 437.20001220703125 L 562.7000122070312 431.6000061035156 L 567.5 428.1000061035156 Z" class="st11" style="fill-rule: evenodd; clip-rule: evenodd; fill: rgb(255, 204, 0);" transform="matrix(1, 0, 0, 1, 0, 0)"/><path d="M 579.7999877929688 428.1000061035156 L 578 422.5 L 576.2000122070312 428.1000061035156 L 570.2999877929688 428.1000061035156 L 575.0999755859375 431.6000061035156 L 573.2000122070312 437.20001220703125 L 578 433.70001220703125 L 582.7000122070312 437.20001220703125 L 580.9000244140625 431.6000061035156 L 585.7000122070312 428.1000061035156 Z" class="st11" style="fill-rule: evenodd; clip-rule: evenodd; fill: rgb(255, 204, 0);" transform="matrix(1, 0, 0, 1, 0, 0)"/><path d="M 598 428.1000061035156 L 596.2000122070312 422.5 L 594.4000244140625 428.1000061035156 L 588.5 428.1000061035156 L 593.2999877929688 431.6000061035156 L 591.4000244140625 437.20001220703125 L 596.2000122070312 433.70001220703125 L 601 437.20001220703125 L 599.0999755859375 431.6000061035156 L 603.9000244140625 428.1000061035156 Z" class="st11" style="fill-rule: evenodd; clip-rule: evenodd; fill: rgb(255, 204, 0);" transform="matrix(1, 0, 0, 1, 0, 0)"/><path d="M 498.100012 455 A 27.9 27.9 0 0 1 470.200012 482.9 A 27.9 27.9 0 0 1 442.300013 455 A 27.9 27.9 0 0 1 470.200012 427.1 A 27.9 27.9 0 0 1 498.100012 455 Z" class="st10" style="fill-rule: evenodd; clip-rule: evenodd; fill: rgb(53, 143, 166);" transform="matrix(1, 0, 0, 1, 0, 0)"/><path class="st9" d="M476.5,450.8c1.1-1.4,1.8-3.2,1.8-5.1c0-4.5-3.6-8.1-8.1-8.1c-4.5,0-8.1,3.6-8.1,8.1c0,1.9,0.7,3.7,1.8,5.1&#10;&#9;&#9;&#9;c-3.2,1.9-5.3,5.4-5.3,9.3v9.2c0,1.6,1.3,2.9,2.9,2.9h17.2c1.6,0,2.9-1.3,2.9-2.9v-9.2C481.8,456.2,479.6,452.8,476.5,450.8z" style="fill-rule: evenodd; clip-rule: evenodd; fill: rgb(255, 255, 255);" transform="matrix(1, 0, 0, 1, 0, 0)"/><path class="st7" d="M708.5,541.5H433.9c-3.9,0-7,3.1-7,7V634c0,3.9,3.2,7,7,7h219.9l17.6,17.6c1.7,1.7,4.4,1.7,6.1,0l17.6-17.6&#10;&#9;&#9;&#9;h13.3c3.9,0,7-3.1,7-7v-85.5C715.5,544.7,712.3,541.5,708.5,541.5z" style="fill-rule: evenodd; clip-rule: evenodd; fill: rgb(82, 121, 111);" transform="matrix(1, 0, 0, 1, 0, 0)"/><path d="M 511.700012 578.900024 H 659.800018 V 584.000024 H 511.700012 V 578.900024 Z" class="st9" style="fill-rule: evenodd; clip-rule: evenodd; fill: rgb(255, 255, 255);" transform="matrix(1, 0, 0, 1, 0, 0)"/><path d="M 511.700012 588.700012 H 659.800018 V 593.800012 H 511.700012 V 588.700012 Z" class="st9" style="fill-rule: evenodd; clip-rule: evenodd; fill: rgb(255, 255, 255);" transform="matrix(1, 0, 0, 1, 0, 0)"/><path d="M 511.700012 598.599976 H 659.800018 V 603.699975 H 511.700012 V 598.599976 Z" class="st9" style="fill-rule: evenodd; clip-rule: evenodd; fill: rgb(255, 255, 255);" transform="matrix(1, 0, 0, 1, 0, 0)"/><path d="M 511.700012 608.400024 H 609.300011 V 613.500024 H 511.700012 V 608.400024 Z" class="st9" style="fill-rule: evenodd; clip-rule: evenodd; fill: rgb(255, 255, 255);" transform="matrix(1, 0, 0, 1, 0, 0)"/><path d="M 525.2000122070312 564.4000244140625 L 523.2999877929688 558.7999877929688 L 521.5 564.4000244140625 L 515.5999755859375 564.4000244140625 L 520.4000244140625 567.9000244140625 L 518.5999755859375 573.5 L 523.2999877929688 570 L 528.0999755859375 573.5 L 526.2999877929688 567.9000244140625 L 531.0999755859375 564.4000244140625 Z" class="st11" style="fill-rule: evenodd; clip-rule: evenodd; fill: rgb(255, 204, 0);" transform="matrix(1, 0, 0, 1, 0, 0)"/><path d="M 543.4000244140625 564.4000244140625 L 541.5999755859375 558.7999877929688 L 539.7000122070312 564.4000244140625 L 533.9000244140625 564.4000244140625 L 538.5999755859375 567.9000244140625 L 536.7999877929688 573.5 L 541.5999755859375 570 L 546.2999877929688 573.5 L 544.5 567.9000244140625 L 549.2999877929688 564.4000244140625 Z" class="st11" style="fill-rule: evenodd; clip-rule: evenodd; fill: rgb(255, 204, 0);" transform="matrix(1, 0, 0, 1, 0, 0)"/><path d="M 561.5999755859375 564.4000244140625 L 559.7999877929688 558.7999877929688 L 558 564.4000244140625 L 552.0999755859375 564.4000244140625 L 556.7999877929688 567.9000244140625 L 555 573.5 L 559.7999877929688 570 L 564.5 573.5 L 562.7000122070312 567.9000244140625 L 567.5 564.4000244140625 Z" class="st10" style="fill-rule: evenodd; clip-rule: evenodd; fill: rgb(53, 143, 166);" transform="matrix(1, 0, 0, 1, 0, 0)"/><path d="M 579.7999877929688 564.4000244140625 L 578 558.7999877929688 L 576.2000122070312 564.4000244140625 L 570.2999877929688 564.4000244140625 L 575.0999755859375 567.9000244140625 L 573.2000122070312 573.5 L 578 570 L 582.7000122070312 573.5 L 580.9000244140625 567.9000244140625 L 585.7000122070312 564.4000244140625 Z" class="st10" style="fill-rule: evenodd; clip-rule: evenodd; fill: rgb(53, 143, 166);" transform="matrix(1, 0, 0, 1, 0, 0)"/><path d="M 598 564.4000244140625 L 596.2000122070312 558.7999877929688 L 594.4000244140625 564.4000244140625 L 588.5 564.4000244140625 L 593.2999877929688 567.9000244140625 L 591.4000244140625 573.5 L 596.2000122070312 570 L 601 573.5 L 599.0999755859375 567.9000244140625 L 603.9000244140625 564.4000244140625 Z" class="st10" style="fill-rule: evenodd; clip-rule: evenodd; fill: rgb(53, 143, 166);" transform="matrix(1, 0, 0, 1, 0, 0)"/><path d="M 498.100012 591.299988 A 27.9 27.9 0 0 1 470.200012 619.199987 A 27.9 27.9 0 0 1 442.300013 591.299988 A 27.9 27.9 0 0 1 470.200012 563.399988 A 27.9 27.9 0 0 1 498.100012 591.299988 Z" class="st13" style="fill-rule: evenodd; clip-rule: evenodd; fill: rgb(194, 64, 68);" transform="matrix(1, 0, 0, 1, 0, 0)"/><path class="st9" d="M476.5,587.1c1.1-1.4,1.8-3.2,1.8-5.1c0-4.5-3.6-8.1-8.1-8.1c-4.5,0-8.1,3.6-8.1,8.1c0,1.9,0.7,3.7,1.8,5.1&#10;&#9;&#9;&#9;c-3.2,1.9-5.3,5.4-5.3,9.3v9.2c0,1.6,1.3,2.9,2.9,2.9h17.2c1.6,0,2.9-1.3,2.9-2.9v-9.2C481.8,592.5,479.6,589,476.5,587.1z" style="fill-rule: evenodd; clip-rule: evenodd; fill: rgb(255, 255, 255);" transform="matrix(1, 0, 0, 1, 0, 0)"/>
<path d="M 718.2225952148438 199.1598358154297 L 834.7027587890625 283.15997314453125 L 889.595703125 322.7462158203125" style="fill: rgb(227, 104, 108); fill-opacity: 0; stroke: rgb(0, 0, 0); stroke-opacity: 1; stroke-width: 0; paint-order: fill;"/><path style="fill: rgb(227, 104, 108); fill-opacity: 0; stroke: rgb(0, 0, 0); stroke-opacity: 1; stroke-width: 0; paint-order: fill;"/><path d="M 490.8236999511719 296.3811340332031 L 6.365102291107178 540.2582397460938 L 490.8236999511719 296.3811340332031 Z" style="fill: rgb(227, 104, 108); fill-opacity: 0; stroke: rgb(0, 0, 0); stroke-opacity: 1; stroke-width: 0; paint-order: fill;"/><path d="M 675.3793334960938 431.5022277832031" style="fill: rgb(0, 204, 255); fill-opacity: 1; stroke: rgb(0, 0, 0); stroke-opacity: 1; stroke-width: 0; paint-order: fill;"/><path d="M 756.1224365234375 560.0320434570312 L 767.6571655273438 558.3842163085938" style="fill: rgb(0, 204, 255); fill-opacity: 1; stroke: rgb(0, 0, 0); stroke-opacity: 1; stroke-width: 0; paint-order: fill;"/><path d="M 675.3793334960938 438.093505859375 L 675.3793334960938 438.093505859375" style="fill: rgb(82, 121, 111); fill-opacity: 1; stroke: rgb(0, 0, 0); stroke-opacity: 1; stroke-width: 0; paint-order: fill;"/><path d="M 652.3098754882812 609.4666137695312" style="fill: rgb(82, 121, 111); fill-opacity: 1; stroke: rgb(0, 0, 0); stroke-opacity: 1; stroke-width: 0; paint-order: fill;"/><path d="M 691.8575439453125 624.2969970703125 L 691.8575439453125 624.2969970703125 L 683.618408203125 584.7493286132812" style="fill: rgb(82, 121, 111); fill-opacity: 1; stroke: rgb(0, 0, 0); stroke-opacity: 1; stroke-width: 0; paint-order: fill;"/><path d="M 332.63311767578125 772.6006469726562" style="fill: rgb(82, 121, 111); fill-opacity: 1; stroke: rgb(0, 0, 0); stroke-opacity: 1; stroke-width: 0; paint-order: fill;"/><path d="M 924.1998901367188 258.4812927246094" style="fill: rgb(82, 121, 111); fill-opacity: 1; stroke: rgb(0, 0, 0); stroke-opacity: 1; stroke-width: 0; paint-order: fill;"/><path d="M 907.7217407226562 360.6460266113281 L 907.7217407226562 362.2938537597656" style="fill: rgb(202, 210, 197); fill-opacity: 1; stroke: rgb(0, 0, 0); stroke-opacity: 1; stroke-width: 0; paint-order: fill;"/></svg>